PathFileType	4	(X/Y/Z)	C:\Users\WrightLab\Desktop\Jo\P3_10.trc
DataRate	CameraRate	NumFrames	NumMarkers	Units	OrigDataRate	OrigDataStartFrame	OrigNumFrames
100.00	100.00	       47	19	mm	100.00	1	       633
Frame#	Time	Headset_Front			Headset_Back			Headset_Left			Headset_Right			Left_Shoulder			Right_Shoulder			Sternum			C7			Left Elbow			Right Elbow			Left Wrist			Right Wrist			Left ASIS			Right ASIS			S2			Left Knee			Right Knee			Left Ankle			Right Ankle			
		X1	Y1	Z1	X2	Y2	Z2	X3	Y3	Z3	X4	Y4	Z4	X5	Y5	Z5	X6	Y6	Z6	X7	Y7	Z7	X8	Y8	Z8	X9	Y9	Z9	X10	Y10	Z10	X11	Y11	Z11	X12	Y12	Z12	X13	Y13	Z13	X14	Y14	Z14	X15	Y15	Z15	X16	Y16	Z16	X17	Y17	Z17	X18	Y18	Z18	X19	Y19	Z19	

1	0.000																															-210.28795	768.20361	-1534.81189				-301.45374	809.64069	-1570.79688																			
2	0.010																															-210.69101	768.18121	-1532.11951				-303.38840	809.97241	-1566.01257																			
3	0.020																															-210.73468	767.06110	-1529.88391				-305.06757	809.15546	-1564.42554																			
4	0.030																															-209.48955	764.99603	-1531.82776				-307.28699	809.88043	-1559.87744																			
5	0.040																															-209.29190	764.22760	-1528.17810				-308.62454	809.08270	-1560.82544																			
6	0.050																															-208.61464	764.89880	-1524.17273				-310.88666	809.62848	-1558.94043																			
7	0.060																															-207.96028	765.61542	-1520.30981				-312.17825	809.09595	-1559.67004																			
8	0.070																															-206.95288	765.55078	-1519.31433				-314.16870	810.51868	-1553.98669																			
9	0.080																															-206.10191	764.49139	-1519.11890				-315.68167	811.98047	-1549.41211																			
10	0.090																															-205.55659	763.86914	-1518.44775				-317.18631	812.07544	-1544.73242																			
11	0.100																															-205.39389	764.05127	-1517.48669				-318.30508	814.64197	-1541.32922																			
12	0.110																															-205.10812	764.40051	-1515.80237				-319.13705	815.18994	-1539.36719																			
13	0.120																															-204.02361	763.97113	-1516.20996				-321.34683	816.06543	-1532.27869																			
14	0.130																															-203.53745	764.65845	-1513.35388				-321.62799	815.65784	-1533.77197																			
15	0.140																															-202.57242	765.39569	-1507.37012				-323.64493	817.70996	-1527.24573																			
16	0.150																															-202.03447	766.15936	-1504.21033				-325.16080	819.01569	-1522.54773																			
17	0.160																															-200.56438	764.54999	-1505.79871				-325.76050	819.55322	-1521.26160																			
18	0.170																															-200.36414	763.84723	-1502.92603				-327.11954	819.72729	-1515.89319																			
19	0.180																															-200.15717	764.04492	-1501.69690				-327.80655	819.88446	-1512.34851																			
20	0.190																															-199.97299	764.13251	-1500.59131				-328.62540	820.59174	-1509.82349																			
21	0.200																															-199.62134	764.44250	-1498.49805				-329.29263	820.89307	-1507.27771																-290.63577	167.87006	-1561.62415	
22	0.210																															-199.00732	765.02618	-1494.84644				-330.13159	820.58563	-1504.08484																-295.82858	165.11047	-1548.31763	
23	0.220																															-198.90509	765.02325	-1486.76782				-331.86090	821.78351	-1496.96729																-300.82748	161.72809	-1536.27673	
24	0.230																															-197.89278	763.77039	-1484.28247				-332.84650	821.88171	-1492.73840																-306.26956	158.34175	-1521.66980	
25	0.240																															-197.61795	762.93927	-1480.94873				-334.40417	822.15173	-1486.50024																-311.65414	153.99510	-1505.34680	
26	0.250																			-442.78461	1161.39868	-1464.80969										-197.42862	762.99103	-1479.80615				-335.09442	821.94110	-1484.02979																-317.02646	150.65945	-1488.03674	
27	0.260																			-443.14844	1159.01221	-1464.13062										-197.73633	763.19421	-1476.59607				-336.50247	822.75256	-1477.53760																-321.63138	149.02979	-1465.46936	
28	0.270																			-445.48560	1160.86389	-1454.39368										-198.34261	763.69519	-1471.38123				-337.81580	822.78693	-1472.04053																-327.30902	140.59090	-1456.13708	
29	0.280																-609.78180	1291.48633	-1588.19666	-446.52222	1160.39075	-1451.48340										-198.16068	762.63141	-1468.25952				-338.43823	822.41943	-1470.78027																-332.79218	137.49072	-1433.75305	
30	0.290																-610.48401	1291.51538	-1585.13452	-447.81216	1158.34766	-1447.80103										-198.45688	762.48871	-1461.31995				-340.22885	822.17200	-1465.21497																-338.50250	131.88989	-1420.38916	
31	0.300																-611.99219	1291.54785	-1581.16687	-449.90952	1158.24951	-1440.06787										-197.91016	761.47394	-1456.33154				-341.84079	821.64343	-1458.65552																-342.55853	126.03515	-1402.87195	
32	0.310																-612.50476	1290.49817	-1575.71265	-450.87540	1157.51709	-1436.78943										-198.22617	761.86975	-1449.50610				-342.70407	820.95105	-1454.10388																-347.14685	122.26285	-1381.25928	
33	0.320																-613.04108	1289.41052	-1570.43604	-451.51288	1155.27588	-1433.30823										-198.79396	761.63318	-1443.78625				-343.12357	820.49426	-1448.12305																-351.49164	118.11844	-1364.42432	
34	0.330																-613.70081	1289.45776	-1567.28516	-453.41556	1155.64819	-1426.21655										-197.99838	758.99634	-1444.25195				-344.86707	820.81531	-1440.06445																-355.55914	113.10139	-1350.16895	
35	0.340																-615.11993	1288.61230	-1561.16626	-454.99075	1154.00073	-1419.58228										-198.64915	757.24408	-1439.86670				-345.89618	820.28748	-1431.08240																-359.72940	109.99497	-1325.94824	
36	0.350																-615.54065	1287.54358	-1555.64343	-455.56219	1152.43860	-1417.28113										-199.39107	756.13086	-1436.46655				-346.51550	818.08459	-1424.63818																-363.42245	108.83787	-1308.78601	
37	0.360													-260.02679	1278.18542	-1475.01477	-616.36121	1286.88367	-1550.72937	-457.26880	1152.36121	-1407.99670										-200.42142	755.87933	-1428.52319				-348.59998	816.19049	-1418.91174																-367.03693	105.85221	-1291.85486	
38	0.370													-261.65710	1279.03015	-1472.44836	-616.46747	1285.61572	-1544.89819	-459.27124	1151.45166	-1400.05151										-199.79987	753.86005	-1425.26099				-349.29575	816.76996	-1410.91711																-371.51846	105.95200	-1273.75903	
39	0.380													-262.22510	1276.78296	-1462.44177	-617.43970	1283.75867	-1536.84216	-459.20032	1149.59302	-1398.56995										-201.29411	754.13574	-1414.69531				-350.63589	815.68134	-1404.12244																-375.75610	103.63357	-1258.59155	
40	0.390													-262.76212	1275.76514	-1455.57007	-617.81598	1283.80957	-1533.40027	-460.37756	1148.00732	-1390.92358										-201.68611	753.31158	-1406.30334				-352.11093	814.79529	-1397.28625																-379.45367	103.15719	-1244.33630	
41	0.400													-262.54755	1273.85474	-1446.99817	-618.05627	1282.81396	-1527.58289	-462.02658	1149.04907	-1381.44739										-201.88655	752.02521	-1402.05579				-354.41946	811.88165	-1392.63940							-375.27829	430.43475	-1283.57544							-383.20660	102.44976	-1232.10034	
42	0.410													-264.46112	1273.64587	-1441.34204	-618.28455	1281.84790	-1521.66589	-462.90799	1146.90088	-1375.90186										-202.25536	748.39594	-1398.98596				-355.20432	811.06989	-1385.80676							-377.67926	430.02158	-1276.57825							-387.13034	104.59579	-1215.51746	
43	0.420													-264.96548	1271.45850	-1431.20984	-618.58209	1281.98376	-1517.86060	-464.19904	1145.60010	-1367.84607										-203.56715	747.95245	-1393.03271	-669.59961	734.49774	-1462.59192	-357.32797	810.71198	-1378.27454							-379.82678	429.98923	-1270.16907							-390.37027	104.63199	-1204.01306	
44	0.430													-265.43204	1270.48987	-1424.21436	-619.93158	1280.62463	-1509.08569	-465.10007	1145.52637	-1361.80164				-189.36700	941.54407	-1455.79370				-205.64630	747.22479	-1384.14905	-671.83191	734.09033	-1457.39404	-359.05618	807.90424	-1370.32251							-380.56732	427.25937	-1272.61475							-392.46909	104.62621	-1193.74683	
45	0.440													-265.16287	1268.68896	-1415.31787	-619.78998	1279.24023	-1501.80151	-465.78085	1143.74951	-1356.66760				-190.11118	940.96625	-1450.07959				-206.26619	743.44281	-1381.38708	-673.97577	733.62585	-1450.40234	-361.80444	808.21252	-1364.47803							-383.78137	428.30774	-1256.36377							-395.78909	104.83976	-1187.08435	
46	0.450													-267.01819	1268.53528	-1409.44690	-619.94946	1279.51794	-1497.53308	-467.53064	1142.74207	-1347.68555				-191.32243	939.10620	-1441.65845				-207.39844	742.29651	-1375.81299	-676.04437	735.26337	-1441.61633	-363.12024	806.83295	-1357.56897							-384.91608	428.45682	-1251.15796							-397.98889	104.08025	-1181.16919	
47	0.460													-267.44785	1266.46790	-1398.93469	-619.74182	1278.81140	-1490.84912	-469.45053	1142.14490	-1339.63611				-193.50423	939.35956	-1437.80383				-208.27817	740.43835	-1370.28992	-678.14105	733.36035	-1437.17371	-365.09009	807.52472	-1348.15540							-388.55682	426.40720	-1249.27197							-399.42828	102.14253	-1176.64783	
